<svg width="794" height="794" viewBox="0 0 794 794" fill="none" xmlns="http://www.w3.org/2000/svg">
<path d="M0 356.4C0 229.035 0 165.352 25.5716 117.055C46.2076 78.0808 78.0808 46.2076 117.055 25.5716C165.352 0 229.034 0 356.4 0H437.6C564.966 0 628.649 0 676.945 25.5716C715.92 46.2076 747.793 78.0808 768.429 117.055C794 165.352 794 229.034 794 356.4V437.6C794 564.966 794 628.649 768.429 676.945C747.793 715.92 715.92 747.793 676.945 768.429C628.649 794 564.966 794 437.6 794H356.4C229.035 794 165.352 794 117.055 768.429C78.0808 747.793 46.2076 715.92 25.5716 676.945C0 628.649 0 564.966 0 437.6V356.4Z" fill="url(#paint0_linear_101_26)"/>
<path d="M512.875 319.75C523.119 319.75 532.943 315.681 540.187 308.437C547.431 301.193 551.5 291.369 551.5 281.125C551.5 270.881 547.431 261.057 540.187 253.813C532.943 246.569 523.119 242.5 512.875 242.5C502.631 242.5 492.807 246.569 485.563 253.813C478.319 261.057 474.25 270.881 474.25 281.125C474.25 291.369 478.319 301.193 485.563 308.437C492.807 315.681 502.631 319.75 512.875 319.75ZM187.923 479.503C180.731 472.365 175.024 463.875 171.129 454.521C167.234 445.168 165.228 435.135 165.228 425.003C165.228 414.871 167.234 404.839 171.129 395.485C175.024 386.131 180.731 377.641 187.923 370.503L371.005 188.348C385.488 173.961 405.053 165.857 425.467 165.791L550.959 165.25C561.182 165.178 571.317 167.136 580.777 171.011C590.238 174.885 598.835 180.598 606.071 187.82C613.307 195.041 619.037 203.627 622.93 213.08C626.823 222.532 628.801 232.664 628.75 242.886L627.823 372.743C627.667 393.022 619.504 412.416 605.112 426.703L424.733 606.193C394.528 636.282 345.474 636.282 315.231 606.193L187.923 479.503ZM215.308 397.772C211.718 401.341 208.869 405.583 206.925 410.257C204.981 414.93 203.98 419.942 203.98 425.003C203.98 430.065 204.981 435.076 206.925 439.75C208.869 444.423 211.718 448.666 215.308 452.234L342.616 578.924C357.757 593.987 382.245 593.987 397.386 578.924L577.765 399.433C584.942 392.289 589.009 382.6 589.082 372.473L590.009 242.577C590.03 237.472 589.038 232.414 587.092 227.695C585.145 222.976 582.283 218.689 578.669 215.083C575.056 211.477 570.764 208.623 566.041 206.686C561.318 204.749 556.257 203.767 551.152 203.798L425.621 204.3C415.415 204.333 405.632 208.385 398.391 215.578L215.308 397.772Z" fill="black"/>
<defs>
<linearGradient id="paint0_linear_101_26" x1="754.846" y1="803.802" x2="137.19" y2="-49.7768" gradientUnits="userSpaceOnUse">
<stop stop-color="#D2DAE2"/>
<stop offset="0.443664" stop-color="#EAF9FF"/>
<stop offset="1" stop-color="white"/>
</linearGradient>
</defs>
</svg>
